<svg id="svg" version="1.1" width="400" height="400" viewBox="0 0 400 400" xmlns="http://www.w3.org/2000/svg" xmlns:xlink="http://www.w3.org/1999/xlink" ><g id="svgg"><path id="path0" d="M40.000 5.400 L 40.000 10.800 38.300 10.799 C 33.815 10.796,31.597 13.676,31.599 19.500 L 31.600 23.200 27.200 23.200 L 22.800 23.200 22.800 21.443 C 22.800 19.468,22.461 19.200,19.967 19.200 C 18.437 19.200,18.400 19.166,18.400 17.771 C 18.400 16.986,18.143 16.086,17.829 15.771 C 17.514 15.457,16.614 15.200,15.829 15.200 L 14.400 15.200 14.400 11.014 C 14.400 4.225,13.393 3.000,7.811 3.000 C 4.578 3.000,3.200 3.524,3.200 4.753 C 3.200 6.029,2.212 7.200,1.136 7.200 L 0.000 7.200 0.000 14.800 L 0.000 22.400 1.424 22.400 C 2.271 22.400,2.747 22.562,2.600 22.800 C 2.464 23.020,1.823 23.200,1.176 23.200 L 0.000 23.200 0.000 29.651 L 0.000 36.102 2.000 35.910 C 3.100 35.804,4.000 35.871,4.000 36.059 C 4.000 36.246,3.100 36.400,2.000 36.400 C -0.329 36.400,-0.702 37.078,1.500 37.309 L 3.000 37.466 1.500 37.533 C 0.168 37.592,0.000 37.717,0.000 38.640 L 0.000 39.681 5.300 39.592 C 12.413 39.473,12.281 39.456,13.303 40.638 C 14.868 42.449,16.304 42.944,19.900 42.912 C 21.715 42.896,23.200 43.044,23.200 43.241 C 23.200 43.808,34.548 43.692,35.120 43.120 C 35.421 42.819,35.600 41.324,35.600 39.120 L 35.600 35.600 38.700 35.574 C 43.920 35.531,46.454 34.816,47.375 33.126 L 48.151 31.703 51.759 31.431 C 53.744 31.281,55.610 30.958,55.905 30.713 C 56.562 30.168,56.344 13.052,55.639 9.800 C 55.401 8.700,54.995 6.045,54.737 3.900 C 54.271 0.017,54.264 0.000,53.160 0.000 C 52.208 0.000,52.028 0.185,51.889 1.300 L 51.728 2.600 51.664 1.300 L 51.600 0.000 45.800 0.000 L 40.000 0.000 40.000 5.400 M120.400 1.136 C 120.400 2.119,120.171 2.346,118.700 2.824 C 116.048 3.685,114.800 5.677,114.800 9.049 C 114.800 10.728,114.751 10.800,113.600 10.800 C 111.181 10.800,110.800 11.753,110.800 17.800 L 110.800 23.200 107.080 23.200 C 102.859 23.200,102.400 23.443,102.400 25.680 L 102.400 27.200 98.424 27.200 C 96.204 27.200,94.338 27.377,94.200 27.600 C 94.064 27.820,93.541 28.000,93.038 28.000 C 91.941 28.000,90.963 28.998,90.588 30.500 L 90.313 31.600 85.564 31.600 C 80.882 31.600,80.812 31.586,80.574 30.638 C 79.489 26.316,63.797 26.196,61.894 30.496 C 61.450 31.498,61.212 31.600,59.316 31.600 C 56.987 31.600,56.400 32.158,56.400 34.374 C 56.400 35.536,56.317 35.600,54.814 35.600 C 52.983 35.600,52.400 36.318,52.400 38.574 C 52.400 39.722,52.248 40.000,51.619 40.000 C 48.468 40.000,47.937 41.910,48.008 53.000 C 48.036 57.400,48.045 61.844,48.029 62.876 L 48.000 64.753 46.300 65.088 C 44.625 65.418,44.595 65.453,44.244 67.511 C 43.940 69.290,43.757 69.600,43.006 69.600 C 41.348 69.600,40.000 72.227,40.000 75.460 L 40.000 77.200 38.043 77.200 C 35.852 77.200,35.600 77.490,35.600 80.011 L 35.600 81.556 33.700 81.678 L 31.800 81.800 31.680 83.658 L 31.560 85.515 29.812 85.777 C 28.020 86.046,27.200 87.139,27.200 89.260 C 27.200 89.937,26.809 90.000,22.587 90.000 C 16.980 90.000,15.402 90.507,14.895 92.472 L 14.552 93.800 11.043 94.000 C 7.178 94.220,6.400 94.702,6.400 96.876 C 6.400 97.876,6.257 98.001,5.100 98.006 C 3.212 98.015,2.738 98.479,2.504 100.551 C 2.310 102.272,2.216 102.400,1.148 102.400 C -0.492 102.400,-0.364 103.504,1.300 103.711 L 2.600 103.872 1.300 103.936 C -0.433 104.021,-0.526 105.200,1.200 105.200 C 1.860 105.200,2.400 105.380,2.400 105.600 C 2.400 105.820,1.860 106.000,1.200 106.000 C -0.589 106.000,-0.502 107.487,1.300 107.711 L 2.600 107.872 1.300 107.936 L 0.000 108.000 0.000 115.975 L 0.000 123.949 1.300 124.111 L 2.600 124.272 1.300 124.336 L 0.000 124.400 0.000 127.200 C 0.000 129.904,0.033 130.000,0.979 130.000 C 2.018 130.000,3.687 131.331,4.119 132.503 C 4.261 132.890,4.817 133.407,5.355 133.652 C 5.892 133.897,6.421 134.436,6.529 134.849 C 6.688 135.459,7.105 135.600,8.755 135.600 L 10.785 135.600 10.892 154.400 L 11.000 173.200 8.150 173.200 C 3.261 173.200,2.857 173.377,2.556 175.649 C 2.314 177.471,2.221 177.600,1.148 177.600 L 0.000 177.600 0.000 191.600 L 0.000 205.600 1.127 205.600 C 2.173 205.600,2.281 205.752,2.627 207.700 L 3.000 209.800 4.875 210.162 C 6.593 210.494,6.778 210.645,7.089 211.957 C 7.660 214.374,7.999 214.430,21.259 214.309 C 34.157 214.190,34.800 214.072,34.800 211.818 C 34.800 210.664,35.537 210.000,36.818 210.000 C 38.138 210.000,39.200 208.872,39.200 207.469 C 39.200 205.696,44.066 205.827,44.808 207.619 C 45.742 209.874,46.860 210.133,56.490 210.324 L 65.180 210.496 65.890 211.948 C 66.386 212.963,66.992 213.515,67.900 213.783 C 69.150 214.151,69.200 214.245,69.200 216.236 C 69.200 218.475,69.548 218.782,72.100 218.795 C 73.084 218.799,73.200 218.944,73.200 220.167 C 73.200 222.446,73.501 222.800,75.437 222.800 C 77.173 222.800,77.192 222.815,77.632 224.562 C 78.188 226.768,79.520 227.200,85.777 227.200 C 88.877 227.200,90.006 227.333,90.023 227.700 C 90.035 227.975,90.026 230.197,90.002 232.637 C 89.950 238.059,90.322 239.109,92.355 239.279 L 93.800 239.400 94.062 244.713 C 94.345 250.454,94.510 250.899,96.639 251.669 C 98.282 252.263,98.404 252.798,96.900 252.806 C 94.789 252.818,94.059 254.360,94.017 258.895 C 94.001 260.679,93.918 260.824,92.586 261.380 C 88.900 262.920,89.127 273.901,92.886 275.844 C 93.849 276.342,94.000 276.660,94.000 278.182 C 94.000 280.324,94.763 281.200,96.629 281.200 C 97.978 281.200,98.000 281.228,98.000 282.920 C 98.000 285.081,98.519 285.600,100.680 285.600 C 102.372 285.600,102.400 285.622,102.400 286.971 C 102.400 289.602,102.392 289.600,114.980 289.600 C 127.998 289.600,129.954 289.217,130.462 286.572 C 130.600 285.852,131.055 285.793,137.246 285.691 L 143.882 285.581 144.241 287.273 C 144.692 289.398,145.047 289.508,151.655 289.560 L 156.711 289.600 156.973 290.999 C 157.387 293.202,158.597 293.600,164.882 293.600 L 170.205 293.600 170.714 294.700 C 171.696 296.822,173.775 297.755,177.900 297.925 L 181.600 298.077 181.600 301.162 C 181.600 304.709,182.021 305.542,184.020 305.950 C 185.284 306.208,185.419 306.377,185.631 307.950 C 185.899 309.937,186.425 310.385,188.500 310.394 C 189.940 310.400,190.000 310.454,190.000 311.771 C 190.000 313.514,190.886 314.400,192.629 314.400 L 194.000 314.400 194.000 335.400 L 194.000 356.400 191.700 356.431 C 187.796 356.483,186.254 357.151,185.967 358.916 C 185.680 360.683,185.527 360.868,183.898 361.427 C 181.866 362.123,181.665 363.323,181.630 374.954 C 181.593 387.572,181.975 389.200,184.968 389.200 C 185.281 389.200,185.608 389.887,185.766 390.880 C 186.129 393.149,186.600 393.600,188.606 393.600 C 190.135 393.600,190.342 393.715,190.588 394.700 C 190.963 396.202,191.941 397.200,193.038 397.200 C 193.541 397.200,194.064 397.380,194.200 397.600 C 194.636 398.306,213.466 398.105,215.573 397.371 C 217.546 396.684,218.368 395.845,218.387 394.500 C 218.398 393.708,218.607 393.600,220.120 393.600 C 222.281 393.600,222.800 393.081,222.800 390.920 C 222.800 389.407,222.908 389.198,223.700 389.187 C 226.609 389.146,227.187 386.810,227.194 375.058 L 227.200 365.515 226.198 364.258 C 224.598 362.250,223.897 361.600,223.330 361.600 C 222.974 361.600,222.798 361.042,222.794 359.900 C 222.784 357.091,221.630 356.400,216.947 356.400 L 214.489 356.400 214.682 338.700 C 214.789 328.965,214.719 319.470,214.528 317.600 L 214.180 314.200 215.962 314.346 C 218.049 314.517,218.800 313.823,218.800 311.724 C 218.800 310.484,218.886 310.400,220.167 310.400 C 222.445 310.400,222.800 310.099,222.800 308.165 C 222.800 306.582,222.905 306.392,223.900 306.170 C 227.106 305.457,226.944 306.086,227.114 293.728 C 227.280 281.675,227.264 281.600,224.586 281.600 L 222.800 281.600 222.800 275.074 L 222.800 268.548 224.207 267.877 C 225.006 267.496,225.803 266.729,226.050 266.103 C 226.290 265.496,226.647 264.687,226.843 264.305 C 227.039 263.923,227.219 262.933,227.243 262.105 L 227.286 260.600 227.658 262.257 C 228.122 264.323,228.339 264.388,234.900 264.395 L 240.000 264.400 240.000 265.951 C 240.000 268.336,240.538 268.558,246.749 268.737 C 252.507 268.903,252.783 269.001,252.794 270.886 C 252.803 272.449,253.800 272.799,258.274 272.808 L 262.200 272.816 263.930 274.559 C 265.835 276.477,268.122 277.200,272.285 277.200 C 274.248 277.200,274.497 277.304,275.113 278.378 C 275.485 279.026,276.107 279.639,276.495 279.741 C 277.073 279.892,277.200 280.373,277.200 282.416 C 277.200 286.944,278.281 289.162,280.500 289.187 C 281.477 289.199,281.600 289.349,281.600 290.530 C 281.600 292.844,282.862 293.600,286.726 293.600 L 290.000 293.600 290.000 323.657 L 290.000 353.715 288.700 355.053 C 287.591 356.195,287.124 356.392,285.519 356.396 C 282.493 356.403,281.600 357.005,281.600 359.041 L 281.600 360.754 279.909 360.877 C 277.713 361.037,277.214 362.001,277.206 366.100 C 277.200 369.045,277.155 369.200,276.300 369.206 C 274.207 369.220,273.600 370.610,273.600 375.392 C 273.600 379.550,274.390 381.200,276.382 381.200 C 277.133 381.200,277.200 381.445,277.200 384.181 C 277.200 388.197,277.653 389.099,279.837 389.426 L 281.560 389.685 281.680 391.542 L 281.800 393.400 283.698 393.522 C 285.675 393.649,285.711 393.689,286.088 396.188 C 286.304 397.625,288.680 397.936,299.676 397.969 C 306.526 397.990,310.040 397.858,310.215 397.575 C 310.360 397.342,310.915 396.985,311.449 396.781 C 311.983 396.578,312.793 395.780,313.249 395.006 C 313.789 394.092,314.380 393.599,314.940 393.599 C 317.583 393.594,318.800 391.497,318.800 386.944 C 318.800 385.654,318.862 385.600,320.320 385.600 C 322.810 385.600,322.800 385.642,322.800 374.928 L 322.800 365.215 321.900 365.020 C 321.405 364.912,320.550 364.774,320.000 364.712 C 319.111 364.612,318.987 364.390,318.879 362.720 L 318.758 360.840 316.679 360.720 L 314.600 360.600 314.479 358.500 L 314.358 356.400 312.379 356.400 L 310.400 356.400 310.400 325.000 L 310.400 293.600 312.400 293.600 L 314.400 293.600 314.400 291.621 L 314.400 289.642 316.500 289.521 L 318.600 289.400 318.720 287.548 C 318.837 285.739,318.875 285.690,320.368 285.452 C 322.790 285.064,322.837 284.892,322.782 276.551 C 322.755 272.410,322.883 268.987,323.066 268.944 C 323.250 268.901,324.047 268.758,324.839 268.626 C 326.378 268.370,327.200 267.241,327.200 265.381 C 327.200 264.489,327.359 264.400,328.957 264.400 C 330.899 264.400,331.200 264.047,331.200 261.767 C 331.200 260.423,331.229 260.400,332.920 260.400 C 335.036 260.400,335.600 259.878,335.600 257.920 L 335.600 256.400 337.357 256.400 C 339.332 256.400,339.600 256.061,339.600 253.567 L 339.600 252.000 341.272 252.000 C 344.372 252.000,347.200 250.470,347.200 248.793 C 347.200 248.282,347.671 248.044,349.060 247.854 C 351.472 247.523,352.000 247.038,352.000 245.151 L 352.000 243.600 353.786 243.600 C 355.788 243.600,356.400 242.951,356.400 240.826 C 356.400 239.673,356.491 239.600,357.920 239.600 C 359.831 239.600,360.400 239.036,360.400 237.142 L 360.400 235.644 362.300 235.522 L 364.200 235.400 364.322 233.281 L 364.443 231.161 366.722 231.281 L 369.000 231.400 369.123 233.098 C 369.299 235.534,369.855 235.716,376.554 235.528 C 383.228 235.341,384.414 234.944,384.966 232.715 C 385.322 231.276,385.386 231.234,387.366 231.119 L 389.400 231.000 389.521 229.121 L 389.642 227.242 391.521 227.121 L 393.400 227.000 393.400 224.800 L 393.400 222.600 395.172 222.746 C 398.013 222.980,398.000 223.036,398.000 210.524 C 398.000 198.196,397.953 198.000,395.000 198.000 C 393.612 198.000,393.600 197.984,393.600 196.243 C 393.600 194.301,393.247 194.000,390.967 194.000 C 389.678 194.000,389.600 193.922,389.600 192.633 C 389.600 190.353,389.299 190.000,387.357 190.000 L 385.600 190.000 385.600 166.800 L 385.600 143.600 387.210 143.600 C 388.936 143.600,389.600 142.760,389.600 140.574 C 389.600 139.732,389.785 139.600,390.967 139.600 C 393.238 139.600,393.600 139.296,393.600 137.392 C 393.600 135.688,393.617 135.667,395.238 135.394 C 397.848 134.953,398.000 134.231,398.000 122.246 C 398.000 110.270,398.113 110.800,395.557 110.800 L 393.600 110.800 393.600 108.600 C 393.600 107.390,393.442 106.400,393.249 106.400 C 393.055 106.400,392.685 105.888,392.426 105.262 C 391.829 103.821,389.216 102.400,387.162 102.400 C 385.643 102.400,385.600 102.361,385.600 101.000 C 385.600 98.193,385.011 98.000,376.422 98.000 L 368.844 98.000 368.722 96.100 L 368.600 94.200 366.500 94.079 L 364.400 93.958 364.394 91.079 C 364.386 87.357,363.837 86.238,361.939 86.079 C 360.583 85.965,360.479 85.857,360.230 84.299 C 359.884 82.135,359.392 81.600,357.751 81.600 C 356.474 81.600,356.400 81.524,356.400 80.200 C 356.400 78.370,355.238 77.200,353.422 77.200 C 352.062 77.200,352.042 77.175,351.922 75.300 L 351.800 73.400 349.900 73.278 L 348.000 73.156 348.000 71.211 C 348.000 70.108,347.802 69.201,347.543 69.114 C 347.199 69.000,347.199 68.748,347.543 68.107 C 347.846 67.540,348.000 64.284,348.000 58.426 C 348.000 48.445,347.872 48.000,345.000 48.000 L 343.600 48.000 343.600 45.580 C 343.600 41.771,342.196 40.000,339.176 40.000 C 337.974 40.000,335.637 37.976,335.612 36.914 C 335.583 35.717,333.907 35.540,323.870 35.680 C 312.489 35.838,311.982 35.948,311.235 38.441 L 310.768 40.000 308.584 40.000 L 306.400 40.000 306.400 38.600 C 306.400 36.220,305.375 35.600,301.445 35.600 L 298.089 35.600 297.809 34.100 C 297.367 31.738,297.100 31.600,292.975 31.600 L 289.248 31.600 289.124 30.103 C 288.963 28.161,287.691 27.522,283.500 27.278 C 280.907 27.127,280.400 26.985,280.400 26.411 C 280.400 24.596,276.926 23.200,272.408 23.200 L 268.844 23.200 268.722 21.300 L 268.600 19.400 266.500 19.279 L 264.400 19.158 264.395 14.079 C 264.387 7.527,264.323 7.311,262.267 6.904 C 260.704 6.595,260.603 6.487,260.321 4.834 C 259.957 2.705,260.033 2.782,258.033 2.514 C 256.553 2.315,256.400 2.187,256.400 1.147 L 256.400 0.000 246.000 0.000 L 235.600 0.000 235.547 1.300 L 235.495 2.600 235.200 1.200 L 234.905 -0.200 234.853 1.100 C 234.786 2.735,234.000 2.827,234.000 1.200 C 234.000 0.540,233.820 0.000,233.600 0.000 C 233.380 0.000,233.200 0.540,233.200 1.200 C 233.200 2.133,233.022 2.400,232.400 2.400 C 231.778 2.400,231.600 2.133,231.600 1.200 C 231.600 0.044,231.533 0.000,229.800 0.000 C 228.069 0.000,228.000 0.046,228.000 1.192 C 228.000 2.172,227.804 2.425,226.900 2.610 C 223.892 3.225,223.279 4.273,223.223 8.900 L 223.200 10.800 189.853 10.800 L 156.505 10.800 156.284 9.152 C 156.009 7.096,155.704 6.791,153.648 6.516 C 152.010 6.296,152.000 6.285,152.000 4.590 C 152.000 2.705,151.633 2.400,149.367 2.400 C 148.115 2.400,148.000 2.299,148.000 1.200 L 148.000 0.000 134.200 0.000 L 120.400 0.000 120.400 1.136 M352.725 1.286 C 352.619 2.377,352.404 2.612,351.302 2.835 C 348.529 3.397,348.344 4.042,348.127 13.894 C 347.938 22.465,348.031 22.800,350.614 22.800 L 352.400 22.800 352.440 25.700 C 352.499 29.991,352.732 30.536,354.683 30.949 C 356.204 31.272,356.363 31.432,356.770 33.045 C 357.177 34.661,357.339 34.824,358.962 35.232 C 360.409 35.597,360.754 35.868,360.938 36.789 C 361.241 38.303,362.228 39.200,363.593 39.200 C 364.620 39.200,364.757 39.365,365.010 40.900 C 365.462 43.640,365.343 43.600,373.000 43.600 C 380.657 43.600,380.538 43.640,380.990 40.900 C 381.237 39.401,381.396 39.198,382.335 39.187 C 383.774 39.170,384.641 38.436,384.965 36.960 C 385.193 35.921,385.525 35.643,387.111 35.165 C 388.866 34.636,389.007 34.491,389.317 32.900 C 389.559 31.655,389.839 31.200,390.364 31.200 C 390.758 31.200,391.647 31.002,392.340 30.761 L 393.600 30.322 393.600 26.561 L 393.600 22.800 395.386 22.800 C 396.742 22.800,397.271 22.614,397.586 22.026 C 398.105 21.056,398.141 7.585,397.628 6.319 C 397.423 5.813,397.150 4.907,397.021 4.304 C 396.826 3.393,396.517 3.164,395.193 2.953 C 393.701 2.714,393.600 2.612,393.600 1.349 L 393.600 0.000 385.756 0.000 L 377.912 0.000 378.071 1.355 C 378.186 2.339,378.088 2.655,377.714 2.512 C 377.431 2.403,377.200 1.794,377.200 1.157 C 377.200 -0.761,373.328 -0.626,373.089 1.300 L 372.928 2.600 372.864 1.300 C 372.768 -0.658,369.200 -0.755,369.200 1.200 C 369.200 1.860,369.020 2.400,368.800 2.400 C 368.580 2.400,368.400 1.860,368.400 1.200 L 368.400 0.000 362.025 -0.000 L 355.651 -0.000 355.489 1.300 L 355.328 2.600 355.264 1.300 C 355.168 -0.657,352.916 -0.670,352.725 1.286 M115.386 15.547 C 115.305 15.629,114.968 15.425,114.638 15.095 C 114.308 14.765,114.147 14.387,114.279 14.254 C 114.412 14.121,114.749 14.324,115.028 14.706 C 115.307 15.087,115.468 15.465,115.386 15.547 M135.600 21.000 C 135.600 23.584,134.322 24.310,133.858 21.990 C 133.725 21.324,133.171 20.334,132.626 19.790 L 131.636 18.800 133.618 18.800 L 135.600 18.800 135.600 21.000 M244.000 21.000 L 244.000 23.200 241.800 23.200 L 239.600 23.200 239.600 21.000 L 239.600 18.800 241.800 18.800 L 244.000 18.800 244.000 21.000 M213.600 31.495 C 211.721 31.720,210.800 32.630,210.800 34.262 C 210.800 35.381,210.653 35.601,209.900 35.605 C 207.552 35.620,206.400 36.743,206.400 39.019 C 206.400 39.898,206.232 40.000,204.790 40.000 C 203.076 40.000,202.400 40.841,202.400 42.974 C 202.400 43.774,202.155 43.924,200.551 44.104 C 198.479 44.338,198.015 44.812,198.006 46.700 C 198.000 47.897,197.897 48.000,196.700 48.006 C 194.793 48.015,194.274 48.524,193.975 50.672 L 193.707 52.600 193.653 50.764 C 193.595 48.744,192.727 48.000,190.430 48.000 C 189.538 48.000,189.187 47.734,188.779 46.749 C 188.130 45.182,185.725 44.021,183.100 44.009 C 181.206 44.000,181.200 43.996,181.200 42.633 C 181.200 40.353,180.899 40.000,178.957 40.000 C 177.216 40.000,177.200 39.988,177.200 38.600 C 177.200 36.761,176.039 35.600,174.200 35.600 C 173.242 35.600,172.800 35.416,172.800 35.019 C 172.800 32.712,171.624 31.937,167.600 31.591 C 165.950 31.449,175.940 31.331,189.800 31.330 C 203.660 31.329,214.370 31.403,213.600 31.495 M210.567 38.347 C 210.685 38.537,210.443 38.999,210.030 39.373 C 209.136 40.182,208.481 39.525,209.280 38.620 C 209.881 37.938,210.264 37.857,210.567 38.347 M264.866 39.294 C 264.644 39.516,264.547 39.917,264.649 40.185 C 264.752 40.453,264.558 40.903,264.218 41.185 C 263.878 41.467,263.586 41.631,263.569 41.549 C 263.251 39.997,263.263 39.954,263.890 40.475 C 264.434 40.926,264.478 40.877,264.231 40.097 C 264.051 39.530,264.112 39.200,264.397 39.200 C 264.644 39.200,264.719 38.992,264.562 38.738 C 264.378 38.441,264.453 38.385,264.773 38.583 C 265.107 38.790,265.138 39.022,264.866 39.294 M127.311 40.427 C 127.734 40.881,127.948 41.376,127.785 41.526 C 127.623 41.677,127.422 41.620,127.339 41.400 C 126.937 40.342,126.461 40.029,125.114 39.938 C 124.310 39.884,123.726 39.719,123.818 39.571 C 124.151 39.033,126.562 39.623,127.311 40.427 M123.200 40.574 C 123.200 43.060,123.817 43.661,126.301 43.595 C 127.565 43.562,132.941 43.549,138.247 43.567 L 147.895 43.600 148.116 45.248 C 148.407 47.417,148.754 47.697,151.419 47.918 C 153.001 48.049,153.738 48.296,153.910 48.752 C 154.227 49.591,154.826 50.179,155.700 50.510 C 156.085 50.656,156.400 51.051,156.400 51.387 C 156.400 51.863,156.891 52.000,158.600 52.000 L 160.800 52.000 160.800 53.957 C 160.800 56.109,161.108 56.400,163.387 56.400 C 164.646 56.400,164.722 56.485,164.977 58.189 L 165.246 59.979 167.202 60.238 C 168.980 60.474,169.182 60.609,169.428 61.726 C 169.866 63.721,170.574 64.119,174.040 64.320 L 177.200 64.503 177.200 66.829 L 177.200 69.156 175.300 69.278 L 173.400 69.400 173.278 71.300 L 173.156 73.200 171.178 73.200 L 169.200 73.200 169.200 75.200 L 169.200 77.200 167.358 77.200 C 165.256 77.200,161.600 79.625,161.600 81.019 C 161.600 81.282,160.910 81.608,160.067 81.743 C 158.358 82.016,157.436 82.858,157.046 84.500 L 156.785 85.600 148.692 85.617 C 137.523 85.641,136.000 86.033,136.000 88.876 C 136.000 89.972,135.945 90.000,133.800 90.000 L 131.600 90.000 131.600 92.000 L 131.600 94.000 129.880 94.000 C 127.764 94.000,127.200 94.522,127.200 96.480 L 127.200 98.000 119.375 98.000 C 103.894 98.000,99.195 98.640,96.946 101.054 C 95.739 102.350,95.581 102.400,92.704 102.400 L 89.716 102.400 89.507 94.369 C 89.373 89.235,89.136 86.176,88.849 85.889 C 88.602 85.642,88.400 85.182,88.400 84.867 C 88.400 84.298,86.477 82.401,85.900 82.400 C 85.735 82.400,85.600 79.350,85.600 75.622 L 85.600 68.844 87.500 68.722 L 89.400 68.600 89.600 66.600 L 89.800 64.600 91.600 64.400 L 93.400 64.200 93.510 58.100 L 93.621 52.000 97.330 52.000 C 101.526 52.000,102.000 51.752,102.000 49.560 L 102.000 48.080 105.580 47.940 C 109.605 47.783,109.973 47.572,110.284 45.248 L 110.505 43.600 114.263 43.600 C 118.362 43.600,118.800 43.308,118.800 40.574 C 118.800 39.660,118.936 39.600,121.000 39.600 C 123.064 39.600,123.200 39.660,123.200 40.574 M260.800 41.120 C 260.800 43.357,261.259 43.600,265.480 43.600 L 269.200 43.600 269.200 45.410 C 269.200 47.642,269.888 48.000,274.182 48.000 L 277.111 48.000 277.371 49.387 C 277.797 51.657,278.431 52.000,282.205 52.000 L 285.553 52.000 285.888 53.700 C 286.295 55.768,287.542 56.343,291.700 56.377 L 294.400 56.400 294.400 57.629 C 294.400 59.526,295.157 59.961,298.967 60.254 L 302.400 60.518 302.400 62.607 L 302.400 64.696 300.551 64.904 C 298.438 65.143,298.015 65.604,298.006 67.678 L 298.000 69.156 296.100 69.278 L 294.200 69.400 294.078 71.300 C 293.958 73.166,293.932 73.200,292.611 73.200 C 290.354 73.200,290.000 73.504,290.000 75.443 L 290.000 77.200 288.043 77.200 C 285.849 77.200,285.600 77.488,285.600 80.033 L 285.600 81.600 283.600 81.600 L 281.600 81.600 281.600 83.600 L 281.600 85.600 279.850 85.600 C 276.078 85.600,273.600 86.970,273.600 89.055 C 273.600 89.792,273.384 90.000,272.619 90.000 C 270.703 90.000,269.605 90.827,269.343 92.467 C 269.043 94.342,268.687 94.413,268.183 92.700 C 267.035 88.802,253.849 89.065,253.138 93.000 C 252.770 95.035,248.380 93.290,247.931 90.930 C 247.822 90.354,247.352 90.175,245.696 90.079 L 243.600 89.958 243.600 88.169 C 243.600 86.083,242.861 85.600,239.673 85.600 C 237.585 85.600,235.600 84.058,235.600 82.436 C 235.600 81.689,235.365 81.600,233.400 81.600 L 231.200 81.600 231.200 79.880 C 231.200 77.776,230.678 77.200,228.771 77.200 C 227.365 77.200,227.291 77.131,227.044 75.588 C 226.775 73.904,225.836 73.200,223.862 73.200 C 223.180 73.200,222.840 72.811,222.388 71.516 C 221.705 69.559,221.104 69.299,217.121 69.240 L 214.442 69.200 214.321 67.100 L 214.200 65.000 212.200 64.824 L 210.200 64.648 212.200 64.424 L 214.200 64.200 214.322 62.300 L 214.444 60.400 216.142 60.400 C 218.236 60.400,218.800 59.874,218.800 57.920 C 218.800 56.456,218.851 56.400,220.167 56.400 C 222.491 56.400,222.800 56.116,222.800 53.978 L 222.800 52.042 224.900 51.921 L 227.000 51.800 227.122 49.900 L 227.244 48.000 228.979 48.000 C 230.930 48.000,231.200 47.655,231.200 45.167 L 231.200 43.600 241.600 43.600 C 247.320 43.600,252.000 43.464,252.000 43.298 C 252.000 43.131,252.544 42.754,253.209 42.460 C 253.874 42.166,254.689 41.402,255.019 40.762 C 255.589 39.661,255.756 39.600,258.210 39.600 L 260.800 39.600 260.800 41.120 M345.200 52.546 C 345.200 52.644,344.771 52.522,344.246 52.275 C 343.708 52.021,343.382 51.592,343.497 51.291 C 343.681 50.811,345.200 51.929,345.200 52.546 M72.307 52.286 C 71.706 52.377,70.626 52.379,69.907 52.290 C 69.188 52.201,69.680 52.126,71.000 52.124 C 72.320 52.122,72.908 52.195,72.307 52.286 M326.250 60.000 C 326.773 60.000,327.200 60.180,327.200 60.400 C 327.200 60.620,326.210 60.800,325.000 60.800 C 323.236 60.800,322.800 60.671,322.800 60.150 C 322.800 59.635,323.060 59.552,324.050 59.750 C 324.738 59.888,325.728 60.000,326.250 60.000 M46.252 69.808 C 46.117 70.162,45.816 70.333,45.583 70.190 C 45.293 70.011,45.310 69.749,45.638 69.355 C 46.219 68.654,46.590 68.928,46.252 69.808 M65.317 101.451 C 65.491 101.625,66.481 101.885,67.517 102.030 C 68.553 102.175,63.550 102.285,56.400 102.274 C 49.250 102.264,44.297 102.187,45.392 102.102 C 47.658 101.928,47.985 101.600,47.994 99.500 C 48.000 98.031,48.031 98.000,49.520 98.000 C 51.478 98.000,52.000 97.436,52.000 95.320 C 52.000 93.647,52.036 93.600,53.300 93.594 C 55.365 93.584,56.400 92.282,56.400 89.694 C 56.400 88.947,56.981 88.095,58.400 86.763 C 60.232 85.043,60.400 84.732,60.400 83.065 L 60.400 81.244 62.300 81.122 L 64.200 81.000 64.396 79.000 C 64.504 77.900,64.684 82.430,64.796 89.067 C 64.908 95.704,65.143 101.277,65.317 101.451 M195.288 77.537 C 195.400 77.201,195.534 77.251,195.704 77.693 C 195.890 78.180,195.759 78.308,195.183 78.197 C 194.756 78.115,194.237 78.350,194.019 78.724 C 193.802 79.096,193.619 79.186,193.612 78.924 C 193.605 78.662,193.783 78.334,194.007 78.196 C 194.230 78.058,194.286 77.732,194.130 77.472 C 193.947 77.167,194.072 77.183,194.484 77.517 C 194.987 77.923,195.157 77.928,195.288 77.537 M198.116 82.848 C 198.397 84.944,198.720 85.244,200.965 85.497 C 202.561 85.677,202.800 85.825,202.800 86.636 C 202.800 88.593,204.101 89.166,209.800 89.722 C 210.457 89.786,210.622 90.139,210.722 91.700 L 210.844 93.600 212.822 93.600 C 214.605 93.600,214.801 93.689,214.805 94.500 C 214.821 97.015,215.932 98.000,218.755 98.000 C 219.988 98.000,220.358 98.189,220.731 99.008 C 220.983 99.562,221.642 100.188,222.195 100.398 C 222.748 100.608,223.200 101.055,223.200 101.390 C 223.200 101.855,223.674 102.000,225.200 102.000 L 227.200 102.000 227.200 103.720 C 227.200 105.881,227.719 106.400,229.880 106.400 C 231.514 106.400,231.600 106.459,231.600 107.567 C 231.600 109.573,231.957 109.967,234.031 110.242 C 235.773 110.473,236.058 110.656,236.691 111.950 C 237.186 112.963,237.792 113.515,238.700 113.783 C 240.518 114.318,240.319 114.800,238.280 114.800 C 236.128 114.800,235.600 115.319,235.600 117.438 L 235.600 119.116 230.900 119.270 C 225.678 119.442,224.665 119.816,223.928 121.850 C 223.501 123.030,223.337 123.112,221.020 123.298 C 217.982 123.541,216.266 124.392,215.608 125.981 C 215.183 127.006,214.884 127.200,213.725 127.200 C 211.446 127.200,210.800 127.777,210.800 129.814 L 210.800 131.600 206.843 131.600 C 202.494 131.600,202.400 131.655,202.400 134.194 L 202.400 135.523 198.633 135.661 C 194.294 135.821,194.372 135.778,194.101 138.180 C 193.862 140.305,193.129 140.556,192.583 138.700 C 192.322 137.814,191.784 137.209,190.894 136.800 C 190.141 136.454,189.507 135.820,189.394 135.300 C 189.287 134.805,189.114 133.981,189.010 133.469 C 188.817 132.527,187.353 131.600,186.058 131.600 C 185.555 131.600,185.246 131.114,184.977 129.900 C 184.624 128.307,184.486 128.173,182.800 127.769 C 181.145 127.372,180.989 127.227,180.867 125.970 C 180.690 124.146,180.163 123.600,178.578 123.600 C 177.199 123.600,177.119 123.491,176.607 120.941 C 176.350 119.662,175.605 119.217,173.700 119.205 C 173.059 119.202,172.800 118.962,172.800 118.374 C 172.800 116.504,171.621 115.216,169.900 115.206 C 169.295 115.203,168.800 115.020,168.800 114.800 C 168.800 114.580,169.333 114.400,169.984 114.400 C 173.938 114.400,173.935 103.727,169.982 102.936 C 168.113 102.563,168.605 102.000,170.800 102.000 L 172.800 102.000 172.800 100.000 L 172.800 98.000 174.776 98.000 C 175.863 98.000,176.864 97.820,177.000 97.600 C 177.136 97.380,177.569 97.200,177.962 97.200 C 178.946 97.200,180.221 96.005,180.522 94.800 C 180.712 94.040,181.226 93.656,182.660 93.200 C 184.350 92.663,184.592 92.433,184.984 91.000 C 185.355 89.644,185.602 89.380,186.611 89.267 C 188.191 89.089,189.200 88.123,189.200 86.788 C 189.200 85.884,189.417 85.657,190.479 85.444 C 192.660 85.008,193.600 84.149,193.600 82.591 L 193.600 81.200 195.747 81.200 L 197.895 81.200 198.116 82.848 M331.600 84.751 C 331.600 88.686,331.753 88.970,334.100 89.409 C 335.381 89.648,335.601 89.843,335.605 90.745 C 335.618 93.217,335.946 93.600,338.047 93.600 C 340.140 93.600,340.176 93.647,340.007 96.154 C 339.912 97.545,340.510 97.986,342.500 97.994 L 344.000 98.000 344.000 100.000 C 344.000 101.100,344.160 102.000,344.357 102.000 C 344.553 102.000,344.826 102.451,344.965 103.002 C 345.103 103.552,345.840 104.407,346.603 104.902 C 347.366 105.396,347.993 106.070,347.997 106.400 C 348.019 108.222,348.868 110.000,349.719 110.005 C 352.465 110.022,352.400 109.856,352.400 116.847 L 352.400 123.200 349.900 123.247 C 345.420 123.332,344.723 123.676,344.231 126.041 C 344.027 127.023,343.842 127.096,340.936 127.342 C 337.117 127.664,336.000 128.313,336.000 130.209 L 336.000 131.600 333.800 131.600 L 331.600 131.600 331.600 133.600 L 331.600 135.600 328.029 135.600 C 323.867 135.600,323.200 135.991,323.200 138.429 L 323.200 140.000 319.390 140.000 C 315.232 140.000,314.800 140.285,314.800 143.026 C 314.800 143.940,314.664 144.000,312.600 144.000 L 310.400 144.000 310.400 142.633 C 310.400 140.353,310.099 140.000,308.157 140.000 C 306.416 140.000,306.400 139.988,306.400 138.600 C 306.400 137.733,306.095 136.895,305.600 136.400 C 305.105 135.905,304.267 135.600,303.400 135.600 C 302.111 135.600,302.000 135.505,302.000 134.400 C 302.000 132.690,300.755 131.600,298.800 131.600 C 297.367 131.600,297.200 131.497,297.200 130.616 C 297.200 129.401,295.767 128.000,294.525 128.000 C 294.016 128.000,293.600 127.820,293.600 127.600 C 293.600 127.380,292.710 127.200,291.622 127.200 L 289.644 127.200 289.522 125.300 L 289.400 123.400 287.500 123.278 L 285.600 123.156 285.600 114.778 L 285.600 106.400 287.357 106.400 C 289.332 106.400,289.600 106.061,289.600 103.567 L 289.600 102.000 291.940 102.000 C 295.468 102.000,296.706 101.434,297.202 99.593 C 297.546 98.316,297.830 98.015,298.907 97.791 C 301.130 97.328,302.000 96.540,302.000 94.991 C 302.000 93.642,302.047 93.600,303.551 93.600 C 305.347 93.600,305.947 93.034,306.272 91.036 C 306.484 89.725,306.620 89.600,307.824 89.600 C 309.517 89.600,310.400 88.699,310.400 86.971 C 310.400 85.650,310.456 85.600,311.920 85.600 C 313.878 85.600,314.400 85.036,314.400 82.920 L 314.400 81.200 323.000 81.200 L 331.600 81.200 331.600 84.751 M111.600 102.376 C 111.600 102.536,111.330 102.667,111.000 102.667 C 110.670 102.667,110.400 102.432,110.400 102.146 C 110.400 101.847,110.656 101.723,111.000 101.855 C 111.330 101.982,111.600 102.216,111.600 102.376 M113.400 102.000 C 113.264 102.220,113.373 102.400,113.643 102.400 C 113.913 102.400,114.039 102.494,113.924 102.609 C 113.625 102.908,112.400 102.384,112.400 101.957 C 112.400 101.761,112.681 101.600,113.024 101.600 C 113.367 101.600,113.536 101.780,113.400 102.000 M102.254 102.602 C 100.804 103.359,100.366 103.351,101.376 102.587 C 101.804 102.264,102.434 102.001,102.776 102.002 C 103.119 102.004,102.884 102.274,102.254 102.602 M44.183 106.028 C 44.056 106.232,43.686 106.400,43.361 106.400 C 42.874 106.400,42.861 106.300,43.284 105.842 C 43.833 105.248,44.571 105.400,44.183 106.028 M148.000 110.000 C 148.000 110.713,147.751 110.794,145.700 110.747 L 143.400 110.693 145.376 110.420 C 146.462 110.269,147.422 109.933,147.509 109.673 C 147.751 108.946,148.000 109.111,148.000 110.000 M357.057 110.200 C 357.590 110.733,357.545 110.800,356.652 110.800 C 356.099 110.800,355.537 110.622,355.403 110.405 C 355.258 110.170,355.437 110.116,355.845 110.273 C 356.311 110.451,356.438 110.385,356.242 110.068 C 355.832 109.404,356.345 109.488,357.057 110.200 M23.200 116.800 L 23.200 119.200 21.000 119.200 L 18.800 119.200 18.800 116.800 L 18.800 114.400 21.000 114.400 L 23.200 114.400 23.200 116.800 M263.229 114.835 C 261.006 115.271,260.885 115.404,260.695 117.600 C 260.563 119.136,260.530 119.034,260.470 116.900 L 260.400 114.400 262.700 114.444 L 265.000 114.488 263.229 114.835 M377.200 119.164 C 377.200 119.365,376.120 119.590,374.799 119.664 C 373.073 119.762,372.399 119.660,372.399 119.300 C 372.400 118.956,373.147 118.800,374.800 118.800 C 376.120 118.800,377.200 118.964,377.200 119.164 M127.823 124.473 C 128.209 126.186,128.422 126.341,131.249 126.960 C 131.896 127.102,132.475 127.616,132.759 128.301 C 133.569 130.256,136.029 131.202,140.300 131.201 L 144.000 131.200 144.030 134.900 C 144.080 141.208,144.319 142.067,146.286 143.000 L 147.971 143.800 147.986 149.028 C 148.002 154.962,149.011 158.036,151.300 159.122 C 153.461 160.147,152.679 160.800,149.289 160.800 C 145.630 160.800,144.512 161.364,144.325 163.305 C 144.205 164.544,144.114 164.609,142.200 164.800 L 140.200 165.000 140.079 167.100 L 139.958 169.200 137.355 169.200 C 135.722 169.200,134.845 169.349,135.000 169.600 C 135.136 169.820,135.057 170.000,134.824 170.000 C 134.591 170.000,134.400 169.820,134.400 169.600 C 134.400 169.380,133.770 169.200,133.000 169.200 L 131.600 169.200 131.600 171.200 L 131.600 173.200 127.880 173.200 C 123.659 173.200,123.200 173.443,123.200 175.680 L 123.200 177.200 119.625 177.200 C 115.579 177.200,112.895 178.348,111.909 180.500 C 111.445 181.512,111.223 181.600,109.126 181.600 C 107.873 181.600,106.736 181.780,106.600 182.000 C 106.464 182.220,106.060 182.400,105.702 182.400 C 104.804 182.400,103.200 183.983,103.200 184.870 C 103.200 185.271,102.930 185.600,102.600 185.600 C 102.172 185.600,102.000 185.164,102.000 184.080 C 102.000 182.168,101.436 181.600,99.537 181.600 L 98.034 181.600 97.879 169.700 C 97.633 150.828,97.103 146.940,94.597 145.599 L 93.600 145.065 93.600 133.932 L 93.600 122.800 110.523 122.800 L 127.446 122.800 127.823 124.473 M376.307 123.086 C 375.706 123.177,374.626 123.179,373.907 123.090 C 373.188 123.001,373.680 122.926,375.000 122.924 C 376.320 122.922,376.908 122.995,376.307 123.086 M222.244 126.629 C 222.124 126.943,221.817 127.200,221.564 127.200 C 221.229 127.200,221.238 127.036,221.596 126.605 C 221.867 126.278,221.992 125.755,221.872 125.444 C 221.753 125.133,221.778 124.754,221.928 124.601 C 222.278 124.245,222.532 125.878,222.244 126.629 M69.262 132.036 C 69.412 138.177,69.834 139.200,72.212 139.200 L 73.136 139.200 73.268 152.958 C 73.414 168.210,73.449 168.400,76.062 168.400 L 77.200 168.400 77.200 177.000 L 77.200 185.600 75.829 185.600 C 74.024 185.600,73.200 186.486,73.200 188.429 L 73.200 190.000 70.240 190.000 C 67.234 190.000,65.102 188.807,64.280 186.664 C 63.975 185.870,60.867 185.607,51.700 185.603 L 43.600 185.600 43.600 183.600 L 43.600 181.600 41.656 181.600 L 39.713 181.600 39.498 178.156 C 39.226 173.800,39.062 173.636,34.671 173.326 L 31.200 173.081 31.200 154.341 L 31.200 135.600 32.920 135.600 C 35.077 135.600,35.600 135.081,35.600 132.942 L 35.600 131.244 37.500 131.122 L 39.400 131.000 39.522 129.100 C 39.627 127.468,39.768 127.192,40.522 127.145 C 41.753 127.068,60.154 126.565,65.062 126.475 L 69.123 126.400 69.262 132.036 M252.400 136.826 C 252.400 139.593,252.421 139.600,260.586 139.600 C 266.572 139.600,268.054 139.489,268.539 139.004 C 268.920 138.622,269.188 138.564,269.281 138.843 C 269.361 139.083,270.259 139.373,271.278 139.487 C 273.036 139.686,273.143 139.769,273.400 141.148 C 273.775 143.152,274.255 143.600,276.031 143.600 C 277.463 143.600,277.581 143.691,277.824 144.986 C 278.196 146.971,280.278 148.000,283.924 148.000 L 285.556 148.000 285.678 149.900 L 285.800 151.800 287.900 151.921 L 290.000 152.042 290.000 154.221 L 290.000 156.400 288.024 156.400 C 286.937 156.400,285.936 156.580,285.800 156.800 C 285.664 157.020,285.248 157.206,284.876 157.213 C 283.870 157.233,282.568 158.475,282.258 159.711 C 282.008 160.706,281.820 160.800,280.072 160.800 C 277.762 160.800,277.200 161.286,277.200 163.280 L 277.200 164.800 273.974 164.800 C 269.783 164.800,269.200 165.119,269.200 167.414 L 269.200 169.200 265.800 169.200 C 261.932 169.200,260.800 169.834,260.800 172.000 C 260.800 173.147,260.724 173.200,259.085 173.200 C 256.507 173.200,253.200 175.026,253.200 176.449 C 253.200 177.142,252.829 177.200,248.400 177.200 C 243.606 177.200,243.600 177.199,243.600 176.244 C 243.600 173.928,242.587 173.480,237.253 173.438 C 231.855 173.396,231.617 173.501,231.606 175.933 C 231.600 177.372,230.720 177.555,230.453 176.173 C 230.294 175.353,228.935 174.000,228.270 174.000 C 227.518 174.000,226.400 172.684,226.400 171.800 C 226.400 170.746,225.397 169.802,223.900 169.446 C 223.225 169.286,222.799 168.917,222.799 168.492 C 222.795 167.009,221.300 165.259,219.922 165.127 C 218.749 165.014,218.586 164.851,218.473 163.678 C 218.340 162.298,216.590 160.805,215.100 160.801 C 214.616 160.800,214.400 160.484,214.400 159.774 C 214.400 158.044,213.696 157.225,211.972 156.949 C 210.240 156.672,210.033 155.889,211.631 155.664 C 212.960 155.476,213.863 154.584,214.144 153.180 C 214.376 152.021,214.426 152.000,216.930 152.000 C 220.653 152.000,221.890 151.458,222.453 149.582 C 222.893 148.112,223.002 148.033,224.748 147.920 C 226.135 147.829,226.682 147.597,226.995 146.966 C 228.223 144.487,229.663 143.600,232.456 143.600 C 235.384 143.600,235.600 143.419,235.600 140.967 L 235.600 139.600 238.967 139.600 C 243.405 139.600,243.600 139.506,243.600 137.357 L 243.600 135.600 248.000 135.600 L 252.400 135.600 252.400 136.826 M364.735 166.900 C 364.699 179.715,364.564 189.210,364.435 188.000 L 364.200 185.800 362.300 185.678 C 360.434 185.558,360.400 185.532,360.400 184.211 C 360.400 181.954,360.096 181.600,358.157 181.600 C 356.416 181.600,356.400 181.588,356.400 180.200 C 356.400 178.361,355.239 177.200,353.400 177.200 C 352.191 177.200,352.000 177.070,352.000 176.244 C 352.000 174.275,350.903 173.625,347.100 173.342 L 343.600 173.082 343.600 171.141 L 343.600 169.200 341.621 169.200 L 339.642 169.200 339.521 167.100 L 339.400 165.000 337.500 164.878 C 335.634 164.758,335.600 164.732,335.600 163.411 C 335.600 161.106,335.313 160.800,333.157 160.800 L 331.200 160.800 331.200 158.600 L 331.200 156.400 334.700 156.394 C 339.699 156.385,342.395 155.270,342.972 152.971 C 343.187 152.111,343.436 152.000,345.143 152.000 C 347.229 152.000,348.000 151.185,348.000 148.981 C 348.000 148.017,348.057 148.000,351.400 148.000 C 355.379 148.000,356.400 147.388,356.400 145.000 L 356.400 143.600 360.600 143.600 L 364.800 143.600 364.735 166.900 M344.210 149.040 C 343.709 150.000,343.605 150.058,343.602 149.380 C 343.601 148.929,343.813 148.347,344.073 148.087 C 344.812 147.348,344.873 147.769,344.210 149.040 M190.076 166.600 L 190.200 168.600 192.079 168.721 L 193.958 168.842 194.079 170.721 L 194.200 172.600 196.100 172.722 L 198.000 172.844 198.000 174.859 C 198.000 176.495,198.142 176.912,198.751 177.071 C 199.164 177.179,199.702 177.706,199.946 178.242 C 200.190 178.778,200.804 179.374,201.311 179.566 C 201.817 179.758,202.651 180.732,203.164 181.729 C 203.735 182.840,204.532 183.723,205.219 184.008 C 205.837 184.264,206.440 184.727,206.559 185.037 C 206.705 185.417,207.423 185.600,208.766 185.600 L 210.756 185.600 210.878 187.500 L 211.000 189.400 213.000 189.621 C 214.976 189.839,214.947 189.957,212.724 190.769 C 211.242 191.310,210.805 193.156,210.802 198.881 C 210.799 204.693,211.562 206.400,214.160 206.400 C 214.521 206.400,214.761 207.327,214.936 209.397 C 215.245 213.058,215.715 213.882,217.683 214.214 C 220.058 214.615,218.779 218.201,215.861 219.321 C 215.142 219.597,214.800 221.432,214.800 225.023 C 214.800 227.611,214.707 227.976,213.986 228.204 C 212.894 228.551,211.600 229.987,211.600 230.852 C 211.600 231.474,211.060 231.567,206.799 231.676 L 201.998 231.800 201.999 230.309 C 202.000 228.211,200.796 227.514,196.766 227.281 L 193.600 227.097 193.600 221.339 L 193.600 215.580 192.574 215.190 C 192.010 214.976,191.123 214.800,190.603 214.800 C 189.658 214.800,189.658 214.799,189.529 208.899 C 189.409 203.402,189.338 202.936,188.500 202.099 C 188.005 201.604,187.600 201.050,187.600 200.868 C 187.600 200.685,187.150 200.294,186.600 200.000 C 185.631 199.481,185.600 199.335,185.600 195.265 C 185.600 190.933,184.961 186.000,184.399 186.000 C 182.659 186.000,181.199 183.053,181.160 179.460 C 181.104 174.351,180.940 173.930,178.786 173.355 L 177.000 172.879 178.451 172.839 C 180.149 172.793,180.598 172.340,180.966 170.300 C 181.230 168.836,181.278 168.800,182.990 168.800 C 184.015 168.800,184.992 168.551,185.343 168.200 C 185.673 167.870,186.079 167.600,186.246 167.600 C 186.731 167.600,188.400 165.904,188.400 165.410 C 188.400 163.074,189.924 164.156,190.076 166.600 M272.967 168.543 C 272.828 168.904,272.432 169.200,272.087 169.200 C 271.569 169.200,271.593 169.071,272.230 168.452 C 273.118 167.589,273.323 167.614,272.967 168.543 M310.861 171.029 C 310.791 172.859,310.793 172.862,312.096 172.790 C 314.759 172.644,314.800 172.671,314.800 174.520 C 314.800 176.681,315.319 177.200,317.480 177.200 L 319.200 177.200 319.200 178.786 C 319.200 180.563,319.920 181.200,321.931 181.200 C 323.177 181.200,323.600 181.762,323.600 183.419 C 323.600 184.485,324.341 185.003,326.431 185.395 C 327.500 185.595,327.953 185.940,328.277 186.798 C 328.838 188.284,331.414 189.600,333.762 189.600 L 335.556 189.600 335.678 191.500 L 335.800 193.400 337.900 193.521 L 340.000 193.642 340.000 195.588 C 340.000 196.770,340.196 197.612,340.500 197.735 C 340.775 197.846,340.631 197.951,340.180 197.968 C 339.601 197.991,339.219 197.609,338.877 196.663 C 337.991 194.213,338.155 194.233,316.700 194.079 C 298.356 193.948,297.200 193.898,297.200 193.231 C 297.200 190.530,294.567 190.015,280.323 189.931 C 272.321 189.884,269.997 189.785,273.000 189.621 C 278.011 189.347,279.811 188.660,280.469 186.774 C 280.842 185.704,281.042 185.599,282.739 185.594 C 286.631 185.581,289.200 184.201,289.200 182.124 C 289.200 181.323,289.400 181.200,290.700 181.198 C 293.335 181.196,296.123 179.952,296.772 178.489 C 297.275 177.356,297.533 177.200,298.898 177.200 C 301.359 177.200,302.000 176.660,302.000 174.586 L 302.000 172.800 305.367 172.800 C 309.688 172.800,309.906 172.699,310.229 170.546 C 310.565 168.304,310.952 168.600,310.861 171.029 M157.021 182.449 C 157.045 184.325,157.887 185.200,159.666 185.200 L 160.779 185.200 160.889 191.100 L 161.000 197.000 162.898 197.600 L 164.796 198.200 164.798 202.850 C 164.801 209.706,164.862 209.885,167.322 210.277 C 168.439 210.455,169.318 210.735,169.276 210.900 C 169.234 211.065,169.200 213.000,169.200 215.200 C 169.200 219.156,169.189 219.200,168.240 219.200 C 167.225 219.200,164.400 216.708,164.400 215.812 C 164.400 215.177,162.255 214.810,158.500 214.804 C 155.961 214.801,155.600 214.709,155.600 214.070 C 155.600 211.811,152.486 210.800,145.528 210.800 C 141.423 210.800,139.940 210.670,139.842 210.300 C 138.925 206.850,138.099 206.485,131.100 206.432 L 126.800 206.400 126.794 205.300 C 126.781 202.953,125.323 202.446,118.500 202.417 C 116.245 202.408,114.400 202.265,114.399 202.100 C 114.399 201.935,116.244 201.800,118.499 201.800 L 122.600 201.800 122.722 199.900 L 122.844 198.000 126.393 198.000 C 130.531 198.000,131.200 197.606,131.200 195.171 L 131.200 193.600 135.010 193.600 C 139.168 193.600,139.600 193.315,139.600 190.574 C 139.600 189.629,139.690 189.600,142.574 189.600 C 146.681 189.600,147.524 189.219,147.844 187.212 L 148.102 185.600 150.951 185.594 C 154.682 185.586,155.674 185.063,156.268 182.791 C 156.832 180.630,156.778 180.800,156.900 180.801 C 156.955 180.802,157.010 181.543,157.021 182.449 M23.200 191.800 L 23.200 194.000 21.000 194.000 L 18.800 194.000 18.800 191.800 L 18.800 189.600 21.000 189.600 L 23.200 189.600 23.200 191.800 M182.773 190.968 C 183.217 191.503,182.993 191.557,181.676 191.231 C 181.523 191.193,181.999 190.400,182.175 190.400 C 182.245 190.400,182.514 190.656,182.773 190.968 M90.200 204.001 C 90.200 205.321,90.065 206.400,89.900 206.400 C 89.529 206.400,89.498 202.235,89.867 201.867 C 90.013 201.720,90.148 201.601,90.167 201.601 C 90.185 201.602,90.200 202.682,90.200 204.001 M51.953 206.300 C 51.827 207.094,52.040 207.623,52.395 207.403 C 52.628 207.259,52.685 207.433,52.535 207.826 C 52.310 208.411,52.222 208.389,51.823 207.643 C 51.507 207.053,51.240 206.920,50.951 207.209 C 50.661 207.499,50.533 207.444,50.533 207.031 C 50.533 206.703,50.671 206.520,50.839 206.624 C 51.007 206.728,51.258 206.630,51.396 206.407 C 51.690 205.931,52.021 205.868,51.953 206.300 M57.076 208.700 C 56.975 209.085,56.893 208.770,56.893 208.000 C 56.893 207.230,56.975 206.915,57.076 207.300 C 57.176 207.685,57.176 208.315,57.076 208.700 M373.076 208.700 C 372.975 209.085,372.893 208.770,372.893 208.000 C 372.893 207.230,372.975 206.915,373.076 207.300 C 373.176 207.685,373.176 208.315,373.076 208.700 M277.774 210.842 C 277.652 211.039,277.248 211.186,276.876 211.168 C 276.456 211.149,276.390 211.060,276.702 210.934 C 276.979 210.823,277.105 210.569,276.982 210.370 C 276.859 210.172,277.037 210.116,277.377 210.246 C 277.717 210.377,277.896 210.645,277.774 210.842 M260.739 211.372 C 261.268 214.149,261.572 214.186,284.950 214.328 L 306.099 214.457 307.024 215.556 C 308.866 217.744,314.456 218.404,334.400 218.788 C 342.210 218.939,347.741 219.093,346.690 219.131 C 344.644 219.205,344.000 219.946,344.000 222.226 C 344.000 223.068,343.815 223.200,342.633 223.200 C 340.353 223.200,340.000 223.501,340.000 225.443 L 340.000 227.200 338.043 227.200 C 335.849 227.200,335.600 227.488,335.600 230.033 L 335.600 231.600 333.600 231.600 L 331.600 231.600 331.600 233.600 L 331.600 235.600 329.700 235.610 C 325.456 235.631,323.600 236.625,323.600 238.876 C 323.600 239.934,323.498 240.000,321.880 240.000 C 319.764 240.000,319.200 240.522,319.200 242.480 C 319.200 243.982,319.181 244.000,317.629 244.000 C 315.686 244.000,314.800 244.824,314.800 246.629 C 314.800 247.923,314.723 248.000,313.433 248.000 C 311.105 248.000,310.800 248.283,310.800 250.443 L 310.800 252.400 308.200 252.400 C 305.745 252.400,305.600 252.348,305.600 251.470 C 305.600 249.603,304.051 248.774,300.150 248.554 C 295.720 248.304,294.656 248.745,294.476 250.909 L 294.352 252.400 290.750 252.400 C 286.267 252.400,285.600 252.713,285.600 254.814 L 285.600 256.400 281.451 256.400 L 277.302 256.400 277.044 254.788 C 276.700 252.635,275.964 252.400,269.574 252.400 L 264.400 252.400 264.400 250.590 C 264.400 248.312,263.738 248.001,258.874 247.997 C 255.472 247.995,255.387 247.971,254.750 246.852 C 253.674 244.961,251.904 244.324,247.100 244.099 C 243.382 243.925,242.800 243.804,242.800 243.211 C 242.800 241.637,239.590 240.017,236.451 240.006 C 235.058 240.001,234.790 239.894,235.136 239.478 C 235.374 239.190,235.621 237.168,235.685 234.984 L 235.800 231.012 237.304 230.768 C 239.274 230.449,239.161 230.675,239.459 226.467 C 239.702 223.056,239.780 222.800,240.584 222.800 C 241.739 222.800,243.179 221.404,243.457 220.016 C 243.679 218.905,243.715 218.892,247.205 218.725 C 251.318 218.529,252.000 218.134,252.000 215.951 C 252.000 214.416,252.016 214.400,253.551 214.400 C 255.351 214.400,255.947 213.834,256.275 211.817 L 256.511 210.362 258.552 210.481 C 260.197 210.577,260.621 210.750,260.739 211.372 M376.307 210.686 C 375.706 210.777,374.626 210.779,373.907 210.690 C 373.188 210.601,373.680 210.526,375.000 210.524 C 376.320 210.522,376.908 210.595,376.307 210.686 M377.400 214.400 C 377.264 214.620,376.218 214.771,375.076 214.735 L 373.000 214.670 375.200 214.400 C 376.410 214.252,377.456 214.101,377.524 214.065 C 377.592 214.029,377.536 214.180,377.400 214.400 M118.123 226.134 C 119.940 227.077,120.658 227.212,123.855 227.206 L 127.511 227.200 127.773 228.595 C 128.144 230.576,129.086 230.911,134.879 231.121 L 139.958 231.305 140.079 232.752 C 140.268 235.009,141.841 235.599,147.676 235.599 L 152.353 235.600 152.689 237.298 C 153.100 239.376,153.458 239.486,160.082 239.553 L 164.764 239.600 165.044 241.100 C 165.461 243.328,166.037 243.573,170.900 243.587 C 173.510 243.595,175.200 243.758,175.200 244.003 C 175.200 244.224,175.650 244.797,176.200 245.275 C 176.750 245.753,177.200 246.461,177.200 246.849 C 177.200 247.236,177.380 247.664,177.600 247.800 C 177.820 247.936,178.006 248.532,178.013 249.124 C 178.029 250.538,178.856 251.577,180.262 251.953 L 181.400 252.257 181.507 257.828 C 181.618 263.551,181.914 264.856,183.524 266.713 C 183.948 267.201,184.588 267.600,184.947 267.600 C 185.516 267.600,185.595 268.204,185.564 272.300 C 185.535 276.116,185.453 276.737,185.133 275.600 C 184.546 273.524,184.539 273.521,178.130 273.250 C 172.480 273.012,172.194 272.960,172.079 272.150 C 171.737 269.754,170.585 269.412,162.368 269.263 C 156.491 269.156,154.800 269.009,154.800 268.605 C 154.800 268.102,154.069 267.309,152.039 265.606 C 151.174 264.881,150.507 264.800,145.396 264.800 L 139.715 264.800 139.442 261.522 C 139.132 257.809,138.868 257.324,136.960 256.966 C 135.639 256.718,135.600 256.657,135.600 254.798 C 135.600 252.653,135.301 252.400,132.767 252.400 C 131.211 252.400,131.200 252.389,131.200 250.833 C 131.200 248.352,130.927 248.000,129.005 248.000 C 127.320 248.000,127.289 247.974,126.855 246.254 C 126.360 244.289,125.662 244.013,121.156 244.004 L 118.912 244.000 118.690 241.845 C 118.397 239.008,117.476 237.319,115.782 236.511 L 114.400 235.852 114.395 232.826 C 114.387 228.488,114.221 228.090,112.257 227.704 L 110.600 227.378 110.481 225.109 L 110.361 222.839 112.881 222.720 C 115.392 222.600,115.401 222.604,115.723 223.827 C 115.969 224.764,116.537 225.310,118.123 226.134 M20.400 248.507 L 19.400 249.023 19.291 256.159 C 19.168 264.170,19.226 264.368,21.749 264.462 C 22.657 264.495,21.647 264.643,19.505 264.790 C 14.694 265.120,15.027 264.704,14.860 270.593 C 14.699 276.267,15.114 277.200,17.800 277.200 L 19.200 277.200 19.200 279.400 L 19.200 281.600 17.243 281.600 C 15.827 281.600,15.218 281.775,15.043 282.233 C 14.736 283.033,14.733 291.511,15.040 292.654 L 15.269 293.508 35.445 293.508 C 58.990 293.508,56.400 294.255,56.400 287.459 C 56.400 281.615,56.394 281.600,53.957 281.600 L 52.000 281.600 52.000 279.400 L 52.000 277.200 53.400 277.200 C 55.907 277.200,56.400 276.251,56.400 271.419 C 56.400 265.165,56.125 264.857,50.450 264.750 C 47.976 264.703,47.915 264.681,49.534 264.419 C 51.931 264.030,51.987 263.846,51.994 256.309 L 52.000 249.618 50.918 248.909 C 49.496 247.977,22.128 247.616,20.400 248.507 M206.328 254.300 C 206.257 256.575,206.254 256.579,206.106 254.700 L 205.956 252.800 204.202 252.800 C 203.237 252.800,202.336 252.620,202.200 252.400 C 202.047 252.152,202.796 252.000,204.176 252.000 L 206.400 252.000 206.328 254.300 M243.800 264.594 C 244.020 264.597,244.203 264.780,244.206 265.000 C 244.209 265.220,244.343 265.606,244.504 265.858 C 244.664 266.110,244.536 266.416,244.218 266.538 C 243.841 266.682,243.715 266.566,243.854 266.204 C 243.971 265.898,243.692 265.414,243.233 265.128 C 242.775 264.842,242.400 264.460,242.400 264.280 C 242.400 264.100,242.625 264.096,242.900 264.270 C 243.175 264.445,243.580 264.591,243.800 264.594 M18.967 267.547 C 19.085 267.737,18.843 268.199,18.430 268.573 C 17.536 269.382,16.881 268.725,17.680 267.820 C 18.281 267.138,18.664 267.057,18.967 267.547 M53.910 268.422 C 54.420 269.285,54.419 269.318,53.900 268.700 C 53.226 267.898,52.603 267.751,53.053 268.500 C 53.260 268.844,53.144 268.830,52.681 268.455 C 51.985 267.890,52.146 267.049,52.902 267.301 C 53.138 267.379,53.592 267.884,53.910 268.422 M119.167 269.050 C 119.258 269.133,118.223 269.200,116.867 269.200 C 115.379 269.200,114.400 269.030,114.400 268.771 C 114.400 268.379,118.701 268.631,119.167 269.050 M301.507 273.086 C 300.906 273.177,299.826 273.179,299.107 273.090 C 298.388 273.001,298.880 272.926,300.200 272.924 C 301.520 272.922,302.108 272.995,301.507 273.086 M36.300 289.076 C 35.915 289.176,35.285 289.176,34.900 289.076 C 34.515 288.975,34.830 288.893,35.600 288.893 C 36.370 288.893,36.685 288.975,36.300 289.076 M205.507 293.886 C 204.906 293.977,203.826 293.979,203.107 293.890 C 202.388 293.801,202.880 293.726,204.200 293.724 C 205.520 293.722,206.108 293.795,205.507 293.886 M354.803 311.365 C 353.679 311.771,353.321 312.175,352.972 313.435 C 352.634 314.652,352.208 315.158,351.056 315.709 C 350.199 316.119,349.393 316.878,349.144 317.509 C 348.908 318.109,348.553 318.913,348.357 319.295 C 347.851 320.279,347.913 334.353,348.433 336.781 C 348.875 338.841,348.972 338.923,351.390 339.288 C 351.976 339.376,352.254 339.845,352.470 341.110 C 352.866 343.432,353.022 343.600,354.783 343.600 C 356.646 343.600,356.748 344.037,357.037 353.200 C 357.243 359.741,357.820 361.968,359.536 362.851 C 360.121 363.152,360.729 363.579,360.886 363.799 C 361.048 364.026,363.079 364.197,365.562 364.193 C 371.779 364.182,372.694 363.040,372.874 355.069 C 372.914 353.271,373.049 355.346,373.174 359.680 C 373.449 369.283,372.973 368.600,379.403 368.600 C 385.499 368.600,385.567 368.547,385.590 363.800 C 385.605 360.669,385.631 360.585,386.806 359.917 C 389.236 358.534,389.350 354.814,387.000 353.613 C 385.380 352.785,385.381 352.789,385.537 350.240 L 385.674 348.000 387.008 348.000 C 388.778 348.000,389.600 347.102,389.600 345.171 C 389.600 343.619,389.618 343.600,391.120 343.600 C 393.606 343.600,393.600 343.623,393.600 333.140 C 393.600 324.914,393.516 323.593,392.971 323.288 C 392.624 323.094,392.129 322.518,391.871 322.007 C 391.612 321.496,391.049 320.881,390.620 320.639 C 389.637 320.087,388.431 318.736,388.413 318.170 C 388.396 317.614,386.681 316.000,386.108 316.000 C 385.865 316.000,385.592 315.776,385.501 315.502 C 385.380 315.141,383.608 314.964,379.067 314.859 L 372.800 314.715 372.800 313.329 C 372.800 310.875,372.522 310.797,363.929 310.830 C 358.789 310.851,355.732 311.030,354.803 311.365 M369.046 316.234 C 369.117 316.716,369.017 316.746,368.572 316.377 C 368.262 316.120,368.115 315.738,368.244 315.528 C 368.532 315.062,368.925 315.408,369.046 316.234 M389.905 324.425 C 390.026 324.872,389.980 324.885,389.698 324.486 C 389.492 324.195,389.005 324.081,388.568 324.224 C 387.939 324.430,387.909 324.397,388.400 324.044 C 389.134 323.517,389.699 323.660,389.905 324.425 M112.000 335.943 C 111.172 336.182,110.966 336.539,110.800 338.016 C 110.604 339.765,110.569 339.803,109.023 339.929 C 107.196 340.078,106.431 340.879,106.413 342.661 C 106.402 343.700,106.187 343.996,105.186 344.345 C 102.189 345.390,102.328 350.699,105.367 351.259 C 107.639 351.677,106.304 352.400,103.259 352.400 C 99.942 352.400,98.000 352.853,98.000 353.626 C 98.000 354.349,95.863 356.400,95.109 356.400 C 94.069 356.400,93.884 357.818,94.076 364.322 C 94.268 370.817,94.556 371.726,96.647 372.415 L 97.900 372.829 98.113 379.715 C 98.375 388.201,98.542 388.846,100.627 389.429 C 101.843 389.768,102.225 390.088,102.312 390.834 C 102.620 393.491,102.710 393.600,104.608 393.600 L 106.400 393.600 106.400 395.177 C 106.400 397.820,106.997 398.005,115.389 397.968 C 124.716 397.926,126.066 397.604,126.577 395.300 C 126.913 393.782,127.077 393.600,128.103 393.600 C 130.176 393.600,130.669 393.041,130.974 390.346 C 131.233 388.059,131.399 387.731,133.069 386.197 C 135.222 384.221,135.557 382.986,135.583 376.931 L 135.600 372.862 136.938 372.420 C 138.408 371.935,139.008 371.012,139.403 368.628 C 139.600 367.437,140.142 366.606,141.632 365.207 L 143.600 363.359 143.600 359.880 L 143.600 356.400 145.138 356.400 C 147.806 356.400,148.001 355.867,147.994 348.569 C 147.987 340.945,147.768 340.257,145.291 340.077 C 143.685 339.960,143.599 339.890,143.587 338.677 C 143.560 335.923,143.201 335.800,135.169 335.800 C 129.210 335.800,127.906 335.903,127.586 336.400 C 127.243 336.933,127.157 336.933,126.815 336.400 C 126.394 335.742,114.015 335.361,112.000 335.943 M124.257 345.000 C 123.323 345.934,122.562 345.326,123.444 344.351 C 123.889 343.859,124.280 343.720,124.525 343.965 C 124.770 344.210,124.673 344.584,124.257 345.000 M132.181 348.000 L 135.600 348.000 135.600 350.200 C 135.600 352.264,135.540 352.400,134.626 352.400 C 132.171 352.400,131.600 352.994,131.600 355.547 C 131.600 357.715,131.519 357.934,130.634 358.156 C 130.081 358.295,129.441 358.911,129.136 359.599 C 128.844 360.260,128.379 360.800,128.102 360.800 C 127.826 360.800,127.600 360.980,127.600 361.200 C 127.600 362.236,126.785 361.428,126.404 360.015 C 125.963 358.378,124.753 357.200,123.511 357.200 C 122.924 357.200,122.800 356.849,122.800 355.190 C 122.800 353.029,122.118 352.400,119.774 352.400 C 118.860 352.400,118.800 352.264,118.800 350.200 L 118.800 348.000 122.014 348.000 C 124.833 348.000,125.338 347.888,126.114 347.089 L 127.000 346.179 127.881 347.089 C 128.662 347.897,129.148 348.000,132.181 348.000 M360.687 355.500 C 360.595 356.105,360.520 355.610,360.520 354.400 C 360.520 353.190,360.595 352.695,360.687 353.300 C 360.778 353.905,360.778 354.895,360.687 355.500 M379.651 359.964 C 379.489 360.889,379.460 360.897,378.927 360.168 C 378.581 359.694,378.528 359.357,378.786 359.271 C 379.014 359.195,379.224 358.473,379.253 357.667 L 379.305 356.200 379.562 357.600 C 379.703 358.370,379.743 359.434,379.651 359.964 M97.400 358.926 C 97.640 359.127,97.560 359.190,97.200 359.085 C 96.870 358.987,96.285 359.070,95.900 359.268 C 95.452 359.498,95.200 359.479,95.200 359.214 C 95.200 358.986,95.470 358.800,95.800 358.800 C 96.130 358.800,96.400 358.590,96.400 358.333 C 96.400 358.071,96.531 358.025,96.700 358.229 C 96.865 358.428,97.180 358.741,97.400 358.926 M381.600 362.400 L 381.600 364.800 379.376 364.800 C 377.990 364.800,377.246 364.649,377.401 364.399 C 377.537 364.178,378.133 364.102,378.725 364.231 C 379.589 364.419,379.683 364.375,379.200 364.006 C 378.716 363.636,378.785 363.600,379.561 363.820 C 380.348 364.043,380.475 363.972,380.265 363.425 C 380.124 363.059,380.174 362.860,380.376 362.985 C 380.824 363.262,381.350 361.766,381.002 361.204 C 380.764 360.819,381.051 360.000,381.424 360.000 C 381.521 360.000,381.600 361.080,381.600 362.400 M382.520 360.936 C 382.633 361.231,382.565 361.726,382.369 362.036 C 382.109 362.447,382.011 362.301,382.006 361.500 C 381.999 360.306,382.196 360.090,382.520 360.936 M115.896 372.240 C 116.283 372.534,117.185 372.780,117.900 372.787 L 119.200 372.800 119.200 379.200 L 119.200 385.600 116.800 385.600 L 114.400 385.600 114.400 384.400 C 114.400 382.860,113.140 381.600,111.600 381.600 L 110.400 381.600 110.400 377.200 L 110.400 372.800 111.920 372.800 C 114.129 372.800,114.393 372.324,114.454 368.220 L 114.508 364.600 114.850 368.153 C 115.104 370.793,115.372 371.843,115.896 372.240 M320.680 368.901 C 321.156 368.937,321.467 369.092,321.372 369.245 C 321.138 369.625,319.471 369.176,319.106 368.635 C 318.592 367.874,318.778 367.417,319.308 368.141 C 319.587 368.523,320.205 368.865,320.680 368.901 M206.400 375.000 L 206.400 377.200 204.200 377.200 L 202.000 377.200 202.000 375.000 L 202.000 372.800 204.200 372.800 L 206.400 372.800 206.400 375.000 M302.400 375.000 L 302.400 377.200 300.200 377.200 L 298.000 377.200 298.000 375.000 L 298.000 372.800 300.200 372.800 L 302.400 372.800 302.400 375.000 M131.489 380.500 C 131.401 381.215,131.328 380.630,131.328 379.200 C 131.328 377.770,131.401 377.185,131.489 377.900 C 131.578 378.615,131.578 379.785,131.489 380.500 " stroke="none" fill="#34445c" fill-rule="evenodd"></path><path id="path1" d="M51.693 1.200 C 51.693 1.970,51.775 2.285,51.876 1.900 C 51.976 1.515,51.976 0.885,51.876 0.500 C 51.775 0.115,51.693 0.430,51.693 1.200 M231.600 1.200 C 231.600 2.133,231.778 2.400,232.400 2.400 C 233.022 2.400,233.200 2.133,233.200 1.200 C 233.200 0.267,233.022 0.000,232.400 0.000 C 231.778 0.000,231.600 0.267,231.600 1.200 M234.000 1.200 C 234.000 1.860,234.180 2.400,234.400 2.400 C 234.620 2.400,234.800 1.860,234.800 1.200 C 234.800 0.540,234.620 0.000,234.400 0.000 C 234.180 0.000,234.000 0.540,234.000 1.200 M235.293 1.200 C 235.293 1.970,235.375 2.285,235.476 1.900 C 235.576 1.515,235.576 0.885,235.476 0.500 C 235.375 0.115,235.293 0.430,235.293 1.200 M355.293 1.200 C 355.293 1.970,355.375 2.285,355.476 1.900 C 355.576 1.515,355.576 0.885,355.476 0.500 C 355.375 0.115,355.293 0.430,355.293 1.200 M114.279 14.254 C 114.147 14.387,114.308 14.765,114.638 15.095 C 115.415 15.872,115.684 15.603,115.028 14.706 C 114.749 14.324,114.412 14.121,114.279 14.254 M0.000 22.800 C 0.000 23.020,0.529 23.200,1.176 23.200 C 1.823 23.200,2.464 23.020,2.600 22.800 C 2.747 22.562,2.271 22.400,1.424 22.400 C 0.641 22.400,0.000 22.580,0.000 22.800 M1.600 36.000 L -0.200 36.280 1.900 36.340 C 3.073 36.373,4.000 36.224,4.000 36.000 C 4.000 35.780,3.865 35.627,3.700 35.660 C 3.535 35.693,2.590 35.846,1.600 36.000 M0.705 37.483 C 1.202 37.579,1.922 37.575,2.305 37.475 C 2.687 37.375,2.280 37.296,1.400 37.301 C 0.520 37.305,0.207 37.387,0.705 37.483 M209.280 38.620 C 208.481 39.525,209.136 40.182,210.030 39.373 C 210.443 38.999,210.685 38.537,210.567 38.347 C 210.264 37.857,209.881 37.938,209.280 38.620 M264.562 38.738 C 264.719 38.992,264.644 39.200,264.397 39.200 C 264.112 39.200,264.051 39.530,264.231 40.097 C 264.478 40.877,264.434 40.926,263.890 40.475 C 263.263 39.954,263.251 39.997,263.569 41.549 C 263.586 41.631,263.878 41.467,264.218 41.185 C 264.558 40.903,264.752 40.453,264.649 40.185 C 264.547 39.917,264.644 39.516,264.866 39.294 C 265.138 39.022,265.107 38.790,264.773 38.583 C 264.453 38.385,264.378 38.441,264.562 38.738 M123.808 39.587 C 123.722 39.726,124.310 39.884,125.114 39.938 C 126.461 40.029,126.937 40.342,127.339 41.400 C 127.422 41.620,127.623 41.677,127.785 41.526 C 128.307 41.043,126.643 39.708,125.282 39.518 C 124.558 39.416,123.894 39.447,123.808 39.587 M343.497 51.291 C 343.382 51.592,343.708 52.021,344.246 52.275 C 345.395 52.817,345.448 52.633,344.451 51.562 C 343.886 50.956,343.651 50.889,343.497 51.291 M45.638 69.355 C 45.310 69.749,45.293 70.011,45.583 70.190 C 45.816 70.333,46.117 70.162,46.252 69.808 C 46.590 68.928,46.219 68.654,45.638 69.355 M194.130 77.472 C 194.286 77.732,194.230 78.058,194.007 78.196 C 193.783 78.334,193.605 78.662,193.612 78.924 C 193.619 79.186,193.802 79.096,194.019 78.724 C 194.237 78.350,194.756 78.115,195.183 78.197 C 195.759 78.308,195.890 78.180,195.704 77.693 C 195.534 77.251,195.400 77.201,195.288 77.537 C 195.157 77.928,194.987 77.923,194.484 77.517 C 194.072 77.183,193.947 77.167,194.130 77.472 M112.400 101.957 C 112.400 102.384,113.625 102.908,113.924 102.609 C 114.039 102.494,113.913 102.400,113.643 102.400 C 113.373 102.400,113.264 102.220,113.400 102.000 C 113.536 101.780,113.367 101.600,113.024 101.600 C 112.681 101.600,112.400 101.761,112.400 101.957 M101.376 102.587 C 100.366 103.351,100.804 103.359,102.254 102.602 C 102.884 102.274,103.119 102.004,102.776 102.002 C 102.434 102.001,101.804 102.264,101.376 102.587 M0.500 103.876 C 0.885 103.976,1.515 103.976,1.900 103.876 C 2.285 103.775,1.970 103.693,1.200 103.693 C 0.430 103.693,0.115 103.775,0.500 103.876 M0.000 105.600 C 0.000 105.820,0.540 106.000,1.200 106.000 C 1.860 106.000,2.400 105.820,2.400 105.600 C 2.400 105.380,1.860 105.200,1.200 105.200 C 0.540 105.200,0.000 105.380,0.000 105.600 M0.500 107.876 C 0.885 107.976,1.515 107.976,1.900 107.876 C 2.285 107.775,1.970 107.693,1.200 107.693 C 0.430 107.693,0.115 107.775,0.500 107.876 M356.242 110.068 C 356.438 110.385,356.311 110.451,355.845 110.273 C 355.437 110.116,355.258 110.170,355.403 110.405 C 355.537 110.622,356.099 110.800,356.652 110.800 C 357.545 110.800,357.590 110.733,357.057 110.200 C 356.345 109.488,355.832 109.404,356.242 110.068 M372.399 119.300 C 372.399 119.660,373.073 119.762,374.799 119.664 C 377.919 119.488,377.919 118.800,374.800 118.800 C 373.147 118.800,372.400 118.956,372.399 119.300 M0.500 124.276 C 0.885 124.376,1.515 124.376,1.900 124.276 C 2.285 124.175,1.970 124.093,1.200 124.093 C 0.430 124.093,0.115 124.175,0.500 124.276 M221.928 124.601 C 221.778 124.754,221.753 125.133,221.872 125.444 C 221.992 125.755,221.867 126.278,221.596 126.605 C 221.238 127.036,221.229 127.200,221.564 127.200 C 221.817 127.200,222.124 126.943,222.244 126.629 C 222.532 125.878,222.278 124.245,221.928 124.601 M344.073 148.087 C 343.813 148.347,343.601 148.929,343.602 149.380 C 343.605 150.058,343.709 150.000,344.210 149.040 C 344.873 147.769,344.812 147.348,344.073 148.087 M272.230 168.452 C 271.593 169.071,271.569 169.200,272.087 169.200 C 272.432 169.200,272.828 168.904,272.967 168.543 C 273.323 167.614,273.118 167.589,272.230 168.452 M181.800 190.800 C 181.664 191.020,181.608 191.214,181.676 191.231 C 182.993 191.557,183.217 191.503,182.773 190.968 C 182.213 190.293,182.123 190.277,181.800 190.800 M51.396 206.407 C 51.258 206.630,51.007 206.728,50.839 206.624 C 50.671 206.520,50.533 206.703,50.533 207.031 C 50.533 207.444,50.661 207.499,50.951 207.209 C 51.240 206.920,51.507 207.053,51.823 207.643 C 52.222 208.389,52.310 208.411,52.535 207.826 C 52.685 207.433,52.628 207.259,52.395 207.403 C 52.040 207.623,51.827 207.094,51.953 206.300 C 52.021 205.868,51.690 205.931,51.396 206.407 M56.893 208.000 C 56.893 208.770,56.975 209.085,57.076 208.700 C 57.176 208.315,57.176 207.685,57.076 207.300 C 56.975 206.915,56.893 207.230,56.893 208.000 M372.893 208.000 C 372.893 208.770,372.975 209.085,373.076 208.700 C 373.176 208.315,373.176 207.685,373.076 207.300 C 372.975 206.915,372.893 207.230,372.893 208.000 M276.982 210.370 C 277.105 210.569,276.979 210.823,276.702 210.934 C 276.390 211.060,276.456 211.149,276.876 211.168 C 277.787 211.211,278.150 210.543,277.377 210.246 C 277.037 210.116,276.859 210.172,276.982 210.370 M242.400 264.280 C 242.400 264.460,242.775 264.842,243.233 265.128 C 243.692 265.414,243.971 265.898,243.854 266.204 C 243.715 266.566,243.841 266.682,244.218 266.538 C 244.536 266.416,244.664 266.110,244.504 265.858 C 244.343 265.606,244.209 265.220,244.206 265.000 C 244.203 264.780,244.020 264.597,243.800 264.594 C 243.580 264.591,243.175 264.445,242.900 264.270 C 242.625 264.096,242.400 264.100,242.400 264.280 M17.680 267.820 C 16.881 268.725,17.536 269.382,18.430 268.573 C 18.843 268.199,19.085 267.737,18.967 267.547 C 18.664 267.057,18.281 267.138,17.680 267.820 M52.241 267.534 C 52.113 267.740,52.311 268.155,52.681 268.455 C 53.144 268.830,53.260 268.844,53.053 268.500 C 52.603 267.751,53.226 267.898,53.900 268.700 C 54.419 269.318,54.420 269.285,53.910 268.422 C 53.262 267.327,52.590 266.969,52.241 267.534 M34.900 289.076 C 35.285 289.176,35.915 289.176,36.300 289.076 C 36.685 288.975,36.370 288.893,35.600 288.893 C 34.830 288.893,34.515 288.975,34.900 289.076 M368.244 315.528 C 368.115 315.738,368.262 316.120,368.572 316.377 C 369.017 316.746,369.117 316.716,369.046 316.234 C 368.925 315.408,368.532 315.062,368.244 315.528 M123.444 344.351 C 122.985 344.858,122.894 345.211,123.177 345.386 C 123.779 345.758,125.015 344.455,124.525 343.965 C 124.280 343.720,123.889 343.859,123.444 344.351 M360.520 354.400 C 360.520 355.610,360.595 356.105,360.687 355.500 C 360.778 354.895,360.778 353.905,360.687 353.300 C 360.595 352.695,360.520 353.190,360.520 354.400 M96.400 358.333 C 96.400 358.590,96.130 358.800,95.800 358.800 C 95.470 358.800,95.200 358.986,95.200 359.214 C 95.200 359.479,95.452 359.498,95.900 359.268 C 96.285 359.070,96.870 358.987,97.200 359.085 C 97.560 359.190,97.640 359.127,97.400 358.926 C 97.180 358.741,96.865 358.428,96.700 358.229 C 96.531 358.025,96.400 358.071,96.400 358.333 M382.006 361.500 C 382.011 362.301,382.109 362.447,382.369 362.036 C 382.565 361.726,382.633 361.231,382.520 360.936 C 382.196 360.090,381.999 360.306,382.006 361.500 M318.806 367.824 C 318.822 368.798,320.927 369.965,321.372 369.245 C 321.467 369.092,321.156 368.937,320.680 368.901 C 320.205 368.865,319.587 368.523,319.308 368.141 C 319.028 367.760,318.803 367.616,318.806 367.824 " stroke="none" fill="#344464" fill-rule="evenodd"></path><path id="path2" d="M368.400 1.200 C 368.400 1.860,368.580 2.400,368.800 2.400 C 369.020 2.400,369.200 1.860,369.200 1.200 C 369.200 0.540,369.020 0.000,368.800 0.000 C 368.580 0.000,368.400 0.540,368.400 1.200 M377.200 1.157 C 377.200 1.794,377.431 2.403,377.714 2.512 C 378.088 2.655,378.186 2.339,378.071 1.355 C 377.878 -0.297,377.200 -0.451,377.200 1.157 M375.200 214.400 L 373.000 214.670 375.076 214.735 C 376.218 214.771,377.264 214.620,377.400 214.400 C 377.536 214.180,377.592 214.029,377.524 214.065 C 377.456 214.101,376.410 214.252,375.200 214.400 M388.400 324.044 C 387.909 324.397,387.939 324.430,388.568 324.224 C 389.005 324.081,389.492 324.195,389.698 324.486 C 389.980 324.885,390.026 324.872,389.905 324.425 C 389.699 323.660,389.134 323.517,388.400 324.044 M379.253 357.667 C 379.224 358.473,379.014 359.195,378.786 359.271 C 378.528 359.357,378.581 359.694,378.927 360.168 C 379.640 361.142,379.968 359.813,379.562 357.600 L 379.305 356.200 379.253 357.667 M381.061 361.900 C 380.690 363.607,380.207 364.089,378.542 364.410 C 377.086 364.691,377.128 364.711,379.300 364.754 L 381.600 364.800 381.600 362.800 C 381.600 360.563,381.418 360.258,381.061 361.900 M131.328 379.200 C 131.328 380.630,131.401 381.215,131.489 380.500 C 131.578 379.785,131.578 378.615,131.489 377.900 C 131.401 377.185,131.328 377.770,131.328 379.200 " stroke="none" fill="#38445c" fill-rule="evenodd"></path><path id="path3" d="M368.400 1.200 C 368.400 1.860,368.580 2.400,368.800 2.400 C 369.020 2.400,369.200 1.860,369.200 1.200 C 369.200 0.540,369.020 0.000,368.800 0.000 C 368.580 0.000,368.400 0.540,368.400 1.200 M377.200 1.157 C 377.200 1.794,377.431 2.403,377.714 2.512 C 378.088 2.655,378.186 2.339,378.071 1.355 C 377.878 -0.297,377.200 -0.451,377.200 1.157 M375.200 214.400 L 373.000 214.670 375.076 214.735 C 376.218 214.771,377.264 214.620,377.400 214.400 C 377.536 214.180,377.592 214.029,377.524 214.065 C 377.456 214.101,376.410 214.252,375.200 214.400 M388.400 324.044 C 387.909 324.397,387.939 324.430,388.568 324.224 C 389.005 324.081,389.492 324.195,389.698 324.486 C 389.980 324.885,390.026 324.872,389.905 324.425 C 389.699 323.660,389.134 323.517,388.400 324.044 M379.253 357.667 C 379.224 358.473,379.014 359.195,378.786 359.271 C 378.528 359.357,378.581 359.694,378.927 360.168 C 379.640 361.142,379.968 359.813,379.562 357.600 L 379.305 356.200 379.253 357.667 M381.061 361.900 C 380.690 363.607,380.207 364.089,378.542 364.410 C 377.086 364.691,377.128 364.711,379.300 364.754 L 381.600 364.800 381.600 362.800 C 381.600 360.563,381.418 360.258,381.061 361.900 M131.328 379.200 C 131.328 380.630,131.401 381.215,131.489 380.500 C 131.578 379.785,131.578 378.615,131.489 377.900 C 131.401 377.185,131.328 377.770,131.328 379.200 " stroke="none" fill="#38445c" fill-rule="evenodd"></path><path id="path4" d="M368.400 1.200 C 368.400 1.860,368.580 2.400,368.800 2.400 C 369.020 2.400,369.200 1.860,369.200 1.200 C 369.200 0.540,369.020 0.000,368.800 0.000 C 368.580 0.000,368.400 0.540,368.400 1.200 M377.200 1.157 C 377.200 1.794,377.431 2.403,377.714 2.512 C 378.088 2.655,378.186 2.339,378.071 1.355 C 377.878 -0.297,377.200 -0.451,377.200 1.157 M375.200 214.400 L 373.000 214.670 375.076 214.735 C 376.218 214.771,377.264 214.620,377.400 214.400 C 377.536 214.180,377.592 214.029,377.524 214.065 C 377.456 214.101,376.410 214.252,375.200 214.400 M388.400 324.044 C 387.909 324.397,387.939 324.430,388.568 324.224 C 389.005 324.081,389.492 324.195,389.698 324.486 C 389.980 324.885,390.026 324.872,389.905 324.425 C 389.699 323.660,389.134 323.517,388.400 324.044 M379.253 357.667 C 379.224 358.473,379.014 359.195,378.786 359.271 C 378.528 359.357,378.581 359.694,378.927 360.168 C 379.640 361.142,379.968 359.813,379.562 357.600 L 379.305 356.200 379.253 357.667 M381.061 361.900 C 380.690 363.607,380.207 364.089,378.542 364.410 C 377.086 364.691,377.128 364.711,379.300 364.754 L 381.600 364.800 381.600 362.800 C 381.600 360.563,381.418 360.258,381.061 361.900 M131.328 379.200 C 131.328 380.630,131.401 381.215,131.489 380.500 C 131.578 379.785,131.578 378.615,131.489 377.900 C 131.401 377.185,131.328 377.770,131.328 379.200 " stroke="none" fill="#38445c" fill-rule="evenodd"></path></g></svg>